<svg preserveAspectRatio="xMidYMid meet" width="100%" height="100%" overflow="visible" style="display: block;" viewBox="0 0 144 48" fill="none" xmlns="http://www.w3.org/2000/svg">
<path id="Vector" d="M28.8 9.6H36.352C37.484 9.6 38.4 10.5173 38.4 11.648V17.1507C38.4 18.2827 37.4827 19.1987 36.352 19.1987H30.8493C29.7173 19.1987 28.8013 20.116 28.8013 21.2467V26.7493C28.8013 27.8813 27.884 28.7973 26.7533 28.7973H21.2507C20.708 28.7973 20.1867 29.0133 19.8027 29.3973C19.4187 29.7813 19.2027 30.3027 19.2027 30.8453V36.348C19.2027 37.48 20.12 38.396 21.2507 38.396H36.3533C37.4853 38.396 38.4013 39.3133 38.4013 40.444V45.9467C38.4013 47.0787 37.484 47.9947 36.3533 47.9947H2.048C0.916 47.9947 0 47.0773 0 45.9467V40.444C0 39.312 0.917333 38.396 2.048 38.396H7.55067C8.68267 38.396 9.59867 37.4787 9.59867 36.348V30.8453C9.59867 29.7133 10.516 28.7973 11.6467 28.7973H17.1493C17.692 28.7973 18.2133 28.5813 18.5973 28.1973C18.9813 27.8133 19.1973 27.292 19.1973 26.7493V21.2467C19.1973 20.1147 18.28 19.1987 17.1493 19.1987H2.048C0.916 19.1987 0 18.2813 0 17.1507V11.648C0 10.516 0.917333 9.6 2.048 9.6H28.8ZM45.248 48H50.7507C51.8827 48 52.7987 47.0827 52.7987 45.952V40.4493C52.7987 39.3173 51.8813 38.4013 50.7507 38.4013H45.248C44.116 38.4013 43.2 39.3187 43.2 40.4493V45.952C43.2 47.084 44.1173 48 45.248 48ZM57.6 33.6V45.952C57.6 47.084 58.5173 48 59.648 48H65.1507C66.2827 48 67.1987 47.0827 67.1987 45.952V21.2493C67.1987 20.1173 66.2813 19.2013 65.1507 19.2013H59.648C58.516 19.2013 57.6 20.1187 57.6 21.2493V33.6013V33.6ZM135 19.8C135.384 19.416 135.905 19.2 136.448 19.2H141.951C143.083 19.2 143.999 18.2827 143.999 17.152V11.6493C143.999 10.5173 143.081 9.60133 141.951 9.60133H136.448C135.316 9.60133 134.4 10.5187 134.4 11.6493V17.152C134.4 17.6947 134.184 18.216 133.8 18.6C133.416 18.984 132.895 19.2 132.352 19.2H126.849C125.717 19.2 124.801 18.2827 124.801 17.152V2.048C124.801 0.916 123.884 0 122.753 0H117.251C116.119 0 115.203 0.917333 115.203 2.048V45.9507C115.203 47.0827 116.12 47.9987 117.251 47.9987H122.753C123.885 47.9987 124.801 47.0813 124.801 45.9507V30.848C124.801 29.716 125.719 28.8 126.849 28.8H132.352C132.895 28.8 133.416 29.016 133.8 29.4C134.184 29.784 134.4 30.3053 134.4 30.848V45.9507C134.4 47.0827 135.317 47.9987 136.448 47.9987H141.951C143.083 47.9987 143.999 47.0813 143.999 45.9507V30.848C143.999 29.716 143.081 28.8 141.951 28.8H136.448C135.905 28.8 135.384 28.584 135 28.2C134.616 27.816 134.4 27.2947 134.4 26.752V21.2493C134.4 20.7067 134.616 20.1853 135 19.8013V19.8ZM59.648 9.6H65.1507C66.2827 9.6 67.1987 8.68267 67.1987 7.552V2.048C67.1987 0.916 66.2813 0 65.1507 0H59.648C58.516 0 57.6 0.917333 57.6 2.048V7.55067C57.6 8.68267 58.5173 9.59867 59.648 9.59867V9.6ZM100.8 17.152V11.6493C100.8 10.5173 99.8827 9.60133 98.752 9.60133H83.6493C82.5173 9.60133 81.6013 10.5187 81.6013 11.6493V17.152C81.6013 17.6947 81.3853 18.216 81.0013 18.6C80.6173 18.984 80.096 19.2 79.5533 19.2H74.0507C72.9187 19.2 72.0027 20.1173 72.0027 21.248V45.9507C72.0027 47.0827 72.92 47.9987 74.0507 47.9987H79.5533C80.6853 47.9987 81.6013 47.0813 81.6013 45.9507V21.248C81.6013 20.7053 81.8173 20.184 82.2013 19.8C82.5853 19.416 83.1067 19.2 83.6493 19.2H98.752C99.2947 19.2 99.816 19.416 100.2 19.8C100.584 20.184 100.8 20.7053 100.8 21.248V45.9507C100.8 47.0827 101.717 47.9987 102.848 47.9987H108.351C109.483 47.9987 110.399 47.0813 110.399 45.9507V21.248C110.399 20.116 109.481 19.2 108.351 19.2H102.848C102.305 19.2 101.784 18.984 101.4 18.6C101.016 18.216 100.8 17.6947 100.8 17.152Z" fill="var(--fill-0, #5BF19B)"/>
</svg>
