<svg width="771" height="167" viewBox="0 0 771 167" fill="none" xmlns="http://www.w3.org/2000/svg">
    <g filter="url(#filter0_d_1373_9949)">
        <line x1="1.65274" y1="-1.65274" x2="134.585" y2="-1.65274" transform="matrix(-0.973305 -0.229516 0.237776 -0.97132 157.959 91.0713)" stroke="#32FEFF" stroke-width="3.30548" stroke-linecap="round"/>
    </g>
    <g filter="url(#filter1_d_1373_9949)">
        <line x1="1.27378" y1="-1.27378" x2="134.113" y2="-1.27378" transform="matrix(-0.784853 -0.619682 0.633911 -0.773406 394.32 110.679)" stroke="#32FEFF" stroke-width="2.54756" stroke-linecap="round" stroke-dasharray="1.65 8.26"/>
    </g>
    <line x1="0.82637" y1="-0.82637" x2="135.528" y2="-0.82637" transform="matrix(-0.996148 0.0876845 -0.0909984 -0.995851 537.928 101.353)" stroke="#32FEFF" stroke-opacity="0.5" stroke-width="1.65274" stroke-linecap="round" stroke-dasharray="1.65 8.26"/>
    <line x1="0.82637" y1="-0.82637" x2="134.747" y2="-0.82637" transform="matrix(-0.830255 0.557384 -0.571766 -0.820417 649.092 21.9941)" stroke="#32FEFF" stroke-opacity="0.5" stroke-width="1.65274" stroke-linecap="round" stroke-dasharray="1.65 8.26"/>
    <line x1="0.82637" y1="-0.82637" x2="135.037" y2="-0.82637" transform="matrix(-0.895698 -0.444662 0.458102 -0.8889 770.417 82.3691)" stroke="#32FEFF" stroke-opacity="0.5" stroke-width="1.65274" stroke-linecap="round" stroke-dasharray="1.65 8.26"/>
    <g filter="url(#filter2_d_1373_9949)">
        <line x1="1.65013" y1="-1.65013" x2="134.043" y2="-1.65013" transform="matrix(-0.87738 0.481088 -0.494376 -0.868521 278.135 25.7178)" stroke="#32FEFF" stroke-width="3.30027" stroke-linecap="round"/>
    </g>
    <path d="M526.035 84.0315L543.251 88.9904L547.514 106.428L534.56 118.907L517.344 113.948L513.081 96.5102L526.035 84.0315Z" fill="#33373A" stroke="#32B5FF" stroke-opacity="0.5" stroke-width="3.30548" stroke-dasharray="3.31 3.31"/>
    <path d="M634.916 14.3859L651.377 7.3124L665.725 18.1006L663.612 35.9623L647.151 43.0358L632.803 32.2476L634.916 14.3859Z" fill="#33373A" stroke="#32B5FF" stroke-opacity="0.5" stroke-width="3.30548" stroke-dasharray="3.31 3.31"/>
    <path d="M29.6663 43.2887L42.3022 55.9665L37.5408 73.2747L20.1437 77.9052L7.50785 65.2274L12.2692 47.9192L29.6663 43.2887Z" fill="#32FEFF"/>
    <path d="M145.909 78.204L163.206 73.6L175.815 86.3775L171.126 103.759L153.829 108.363L141.22 95.5856L145.909 78.204Z" fill="#32FEFF"/>
    <path d="M267.08 15.3779L284.377 10.7738L296.985 23.5514L292.297 40.933L275 45.537L262.391 32.7595L267.08 15.3779Z" fill="#32FEFF"/>
    <g filter="url(#filter3_d_1373_9949)">
        <path d="M424.643 120.841L405.38 139.656L379.455 132.382L372.791 106.293L392.054 87.4774L417.979 94.7514L424.643 120.841Z" fill="#33373A"/>
        <path d="M424.643 120.841L405.38 139.656L379.455 132.382L372.791 106.293L392.054 87.4774L417.979 94.7514L424.643 120.841Z" stroke="#32FEFF" stroke-width="3.30548" stroke-dasharray="3.31 3.31"/>
    </g>
    <defs>
        <filter id="filter0_d_1373_9949" x="0.126617" y="35.3466" width="182.278" height="83.3918" filterUnits="userSpaceOnUse" color-interpolation-filters="sRGB">
            <feFlood flood-opacity="0" result="BackgroundImageFix"/>
            <feColorMatrix in="SourceAlpha" type="matrix" values="0 0 0 0 0 0 0 0 0 0 0 0 0 0 0 0 0 0 127 0" result="hardAlpha"/>
            <feOffset/>
            <feGaussianBlur stdDeviation="12.3956"/>
            <feComposite in2="hardAlpha" operator="out"/>
            <feColorMatrix type="matrix" values="0 0 0 0 0.196078 0 0 0 0 0.996078 0 0 0 0 1 0 0 0 0.5 0"/>
            <feBlend mode="normal" in2="BackgroundImageFix" result="effect1_dropShadow_1373_9949"/>
            <feBlend mode="normal" in="SourceGraphic" in2="effect1_dropShadow_1373_9949" result="shape"/>
        </filter>
        <filter id="filter1_d_1373_9949" x="262.178" y="2.50284" width="156.412" height="134.425" filterUnits="userSpaceOnUse" color-interpolation-filters="sRGB">
            <feFlood flood-opacity="0" result="BackgroundImageFix"/>
            <feColorMatrix in="SourceAlpha" type="matrix" values="0 0 0 0 0 0 0 0 0 0 0 0 0 0 0 0 0 0 127 0" result="hardAlpha"/>
            <feOffset/>
            <feGaussianBlur stdDeviation="12.3956"/>
            <feComposite in2="hardAlpha" operator="out"/>
            <feColorMatrix type="matrix" values="0 0 0 0 0.196078 0 0 0 0 0.996078 0 0 0 0 1 0 0 0 0.5 0"/>
            <feBlend mode="normal" in2="BackgroundImageFix" result="effect1_dropShadow_1373_9949"/>
            <feBlend mode="normal" in="SourceGraphic" in2="effect1_dropShadow_1373_9949" result="shape"/>
        </filter>
        <filter id="filter2_d_1373_9949" x="134.891" y="1.51554" width="169.065" height="116.552" filterUnits="userSpaceOnUse" color-interpolation-filters="sRGB">
            <feFlood flood-opacity="0" result="BackgroundImageFix"/>
            <feColorMatrix in="SourceAlpha" type="matrix" values="0 0 0 0 0 0 0 0 0 0 0 0 0 0 0 0 0 0 127 0" result="hardAlpha"/>
            <feOffset/>
            <feGaussianBlur stdDeviation="12.3956"/>
            <feComposite in2="hardAlpha" operator="out"/>
            <feColorMatrix type="matrix" values="0 0 0 0 0.196078 0 0 0 0 0.996078 0 0 0 0 1 0 0 0 0.5 0"/>
            <feBlend mode="normal" in2="BackgroundImageFix" result="effect1_dropShadow_1373_9949"/>
            <feBlend mode="normal" in="SourceGraphic" in2="effect1_dropShadow_1373_9949" result="shape"/>
        </filter>
        <filter id="filter3_d_1373_9949" x="346.163" y="60.8368" width="105.109" height="105.459" filterUnits="userSpaceOnUse" color-interpolation-filters="sRGB">
            <feFlood flood-opacity="0" result="BackgroundImageFix"/>
            <feColorMatrix in="SourceAlpha" type="matrix" values="0 0 0 0 0 0 0 0 0 0 0 0 0 0 0 0 0 0 127 0" result="hardAlpha"/>
            <feOffset/>
            <feGaussianBlur stdDeviation="12.3956"/>
            <feComposite in2="hardAlpha" operator="out"/>
            <feColorMatrix type="matrix" values="0 0 0 0 0.196078 0 0 0 0 0.996078 0 0 0 0 1 0 0 0 0.5 0"/>
            <feBlend mode="normal" in2="BackgroundImageFix" result="effect1_dropShadow_1373_9949"/>
            <feBlend mode="normal" in="SourceGraphic" in2="effect1_dropShadow_1373_9949" result="shape"/>
        </filter>
    </defs>
</svg>
